<svg xmlns="http://www.w3.org/2000/svg" xmlns:xlink="http://www.w3.org/1999/xlink" width="376" height="238" viewBox="0 0 376 238"><defs><style>.a{fill:#fff;stroke:#707070;}.b{clip-path:url(#a);}.c{clip-path:url(#b);}.d{opacity:0.65;}.aa,.ab,.ac,.ad,.ae,.af,.ag,.e,.f,.g,.h,.i,.j,.k,.l,.m,.n,.o,.p,.q,.r,.s,.t,.u,.v,.w,.x,.y,.z{fill:none;stroke:#2e4b79;stroke-linecap:round;stroke-miterlimit:10;}.e{stroke-width:3px;stroke-dasharray:0 9;}.f{stroke-width:2.909px;stroke-dasharray:0 8.834;}.g{stroke-width:2.818px;stroke-dasharray:0 8.668;}.h{stroke-width:2.726px;stroke-dasharray:0 8.503;}.i{stroke-width:2.635px;stroke-dasharray:0 8.337;}.j{stroke-width:2.544px;stroke-dasharray:0 8.171;}.k{stroke-width:2.453px;stroke-dasharray:0 8.005;}.l{stroke-width:2.362px;stroke-dasharray:0 7.839;}.m{stroke-width:2.27px;stroke-dasharray:0 7.673;}.n{stroke-width:2.179px;stroke-dasharray:0 7.508;}.o{stroke-width:2.088px;stroke-dasharray:0 7.342;}.p{stroke-width:1.997px;stroke-dasharray:0 7.176;}.q{stroke-width:1.906px;stroke-dasharray:0 7.01;}.r{stroke-width:1.814px;stroke-dasharray:0 6.844;}.s{stroke-width:1.723px;stroke-dasharray:0 6.679;}.t{stroke-width:1.632px;stroke-dasharray:0 6.513;}.u{stroke-width:1.541px;stroke-dasharray:0 6.347;}.v{stroke-width:1.45px;stroke-dasharray:0 6.181;}.w{stroke-width:1.358px;stroke-dasharray:0 6.015;}.x{stroke-width:1.267px;stroke-dasharray:0 5.849;}.y{stroke-width:1.6px;stroke-dasharray:0 5.684;}.z{stroke-width:1.5px;stroke-dasharray:0 5.518;}.aa{stroke-width:1.4px;stroke-dasharray:0 5.352;}.ab{stroke-width:1.3px;stroke-dasharray:0 5.186;}.ac{stroke-width:1.1px;stroke-dasharray:0 5.02;}.ad{stroke-width:0.95px;stroke-dasharray:0 4.855;}.ae{stroke-width:0.85px;stroke-dasharray:0 4.689;}.af{stroke-width:0.75px;stroke-dasharray:0 4.523;}.ag{stroke-width:0.65px;stroke-dasharray:0 4.357;}</style><clipPath id="a"><rect class="a" width="376" height="238" transform="translate(828 508)"/></clipPath><clipPath id="b"><rect class="a" width="1175.96" height="1173.568" transform="translate(-432 3156)"/></clipPath></defs><g class="b" transform="translate(1204 746) rotate(180)"><g class="c" transform="translate(909.52 -3465.784)"><g class="d" transform="translate(-710.654 3425.863) rotate(-28)"><path class="e" d="M324.836,157.555c2.744,45.734-17.436,85.391-51.383,110.658-26.88,20.009-62.4,30.994-102.009,28.821a189.954,189.954,0,0,1-111.63-44.7C25.632,223.414,2.855,183.2.248,139.75c-2.179-36.315,10.095-68.8,32.238-93.29C60.314,15.684,103.725-2.466,153.64.272A190.08,190.08,0,0,1,271.005,50.026C301.984,78.487,322.377,116.58,324.836,157.555Z" transform="translate(432.297 344.331)"/><path class="f" d="M355.181,170.727c4.013,50.247-21.233,89.639-62.471,117.043-30.68,20.388-62.569,38.628-106.1,36.241-46.276-2.538-85.491-24.99-120.119-51.193C23.483,240.277.081,198.876,0,151.689-.07,110.134,13.969,79.46,38.3,52.547,68.882,18.723,111.822-2.728,166.677.28,215.927,2.982,259.7,25.924,293.747,57.2S351.468,125.2,355.181,170.727Z" transform="translate(418.014 332.04)"/><path class="g" d="M385.928,183.9c5.286,54.758-24.94,93.959-73.564,123.43-34.388,20.84-62.738,46.263-110.192,43.66-50.441-2.767-89.813-30.777-128.609-57.692-52-36.083-75.723-78.762-73.41-129.666,2.131-46.814,17.84-75.659,44.364-105C77.853,21.768,120.319-2.989,180.113.291c53.687,2.945,99.663,30,136.774,64.093S380.962,133.826,385.928,183.9Z" transform="translate(403.332 319.746)"/><path class="h" d="M416.921,197.079c6.561,59.271-28.569,98.337-84.649,129.816-38.035,21.348-62.91,53.9-114.285,51.077-54.609-3-94.242-36.468-137.1-64.186C19.779,274.253-4.058,230.2.557,175.578c4.4-52.077,21.71-79.091,50.427-110.853C87.074,24.811,129.063-3.248,193.8.3c58.123,3.188,106.3,34.349,146.478,71.263S410.7,142.447,416.921,197.079Z" transform="translate(388.398 307.45)"/><path class="i" d="M448.079,210.257c7.835,63.784-32.154,102.766-95.744,136.2-41.648,21.9-63.08,61.532-118.371,58.5-58.775-3.224-98.73-42.092-145.585-70.686-70.3-42.9-94.1-88.4-87.253-146.747C7.852,130.188,26.7,105,57.613,70.817,96.458,27.856,137.974-3.507,207.65.315c62.559,3.432,112.937,38.7,156.185,78.433S440.61,151.074,448.079,210.257Z" transform="translate(373.302 295.154)"/><path class="j" d="M479.362,223.433c9.108,68.3-35.708,107.242-106.83,142.586-45.242,22.48-63.251,69.166-122.468,65.918-62.944-3.453-103.252-47.663-154.073-77.182C16.457,308.559-7.215,261.543,1.812,199.464c9.1-62.583,29.453-85.947,62.552-122.559,41.6-46,82.642-80.67,157.261-76.577C288.615,4,341.2,43.381,387.51,85.927S470.635,159.7,479.362,223.433Z" transform="translate(358.084 282.859)"/><path class="k" d="M510.728,236.612c10.377,72.81-39.233,111.758-117.925,148.971-48.81,23.088-63.417,76.8-126.555,73.338-67.112-3.681-107.8-53.2-162.562-83.68-88.8-49.43-112.271-98.013-101.1-163.828C14.1,143.58,35.909,122.035,71.2,83,115.553,33.95,156.128-4.022,235.683.342c71.426,3.918,126.211,47.406,175.59,92.769S500.751,168.326,510.728,236.612Z" transform="translate(342.78 270.561)"/><path class="l" d="M542.158,249.789c11.651,77.323-42.743,116.3-129.016,155.356-52.375,23.71-63.592,84.435-130.647,80.757-71.277-3.91-112.356-58.7-171.047-90.175C13.347,343.114-9.861,292.919,3.424,223.358,17.379,150.291,40.617,130.55,78.1,89.09,125.21,36.994,165.308-4.279,249.8.356,325.668,4.517,382.654,52.114,435.1,100.293S530.925,176.948,542.158,249.789Z" transform="translate(327.415 258.265)"/><path class="m" d="M573.643,262.968C586.564,344.8,527.407,383.841,433.538,424.71c-55.931,24.349-63.764,92.07-134.74,88.176-75.445-4.138-116.927-64.178-179.539-96.671C11.844,360.47-11.066,308.62,4.314,235.3c16.423-78.291,41.067-96.236,80.744-140.12C134.916,40.04,174.541-4.536,263.977.37c80.3,4.4,139.488,56.11,195,107.108S561.155,185.576,573.643,262.968Z" transform="translate(311.993 245.968)"/><path class="n" d="M605.164,276.147c14.2,86.347-49.713,125.47-151.2,168.127-59.474,25-63.929,99.7-138.827,95.6-79.614-4.367-121.5-69.637-188.028-103.169C10.362,377.858-12.211,324.325,5.244,247.248c18.911-83.51,44.941-99.665,86.807-145.972C144.663,43.086,183.816-4.793,278.192.384c84.735,4.648,146.123,60.462,204.7,114.278S591.423,194.2,605.164,276.147Z" transform="translate(296.532 233.669)"/><path class="o" d="M636.719,289.327c15.468,90.86-53.182,130.089-162.287,174.514-63.021,25.661-64.1,107.337-142.919,103.013C247.731,562.258,205.431,491.77,135,457.189,8.905,395.283-13.308,340.04,6.205,259.2,27.626,170.474,55.02,156.1,99.076,107.37,154.446,46.135,193.123-5.049,292.438.4,381.609,5.29,445.2,65.215,506.843,121.846S621.726,202.831,636.719,289.327Z" transform="translate(281.04 221.371)"/><path class="p" d="M668.3,302.5c16.744,95.374-56.643,134.722-173.377,180.9-66.561,26.332-64.271,114.971-147.01,110.433-87.946-4.824-130.661-80.518-205-116.163C7.463,412.736-14.369,355.758,7.194,271.143c23.943-93.93,52.686-106.527,98.934-157.681C164.252,49.181,202.455-5.306,306.713.413c93.6,5.134,159.4,69.167,224.109,128.616S652.051,211.456,668.3,302.5Z" transform="translate(265.522 209.074)"/><path class="q" d="M699.9,315.684C717.916,415.57,639.8,455.052,515.437,502.969c-70.1,27.008-64.442,122.608-151.1,117.854-92.115-5.053-135.241-85.941-213.494-122.661C6.044,430.212-15.4,371.485,8.2,283.088,34.68,183.96,64.76,173.136,113.2,119.557,174.081,52.226,211.81-5.562,321.008.428c98.039,5.378,166.038,73.52,233.812,135.784S682.4,220.084,699.9,315.684Z" transform="translate(249.981 196.776)"/><path class="r" d="M731.524,328.864c19.29,104.4-63.554,144.032-195.555,193.672-73.639,27.691-64.616,130.238-155.2,125.27-96.279-5.281-139.824-91.353-221.978-129.157C4.631,447.711-16.406,387.212,9.234,295.035c29.023-104.322,60.423-113.383,111.06-169.386C183.927,55.276,221.181-5.819,335.322.443,437.8,6.064,508,78.314,578.838,143.4S712.772,228.711,731.524,328.864Z" transform="translate(234.42 184.477)"/><path class="s" d="M763.165,342.044c20.555,108.91-67.009,148.705-206.65,200.057-77.172,28.38-64.787,137.875-159.286,132.691-100.448-5.51-144.411-96.762-230.471-135.655C3.226,465.234-17.389,402.945,10.279,306.984,41.851,197.472,74.572,190.17,127.4,131.744,193.787,58.325,230.572-6.074,349.648.457,456.56,6.322,528.96,82.683,602.87,150.582S743.156,237.342,763.165,342.044Z" transform="translate(218.848 172.178)"/><path class="t" d="M794.81,355.222c21.833,113.424-70.453,153.384-217.738,206.442-80.7,29.071-64.955,145.507-163.375,140.109-104.616-5.739-149-102.159-238.958-142.147-172.9-76.854-193.09-140.945-163.4-240.7,34.134-114.7,68.17-120.244,123.189-181.093C203.661,61.37,239.973-6.33,363.988.472,475.337,6.58,549.941,87.049,626.913,157.765S773.549,245.965,794.81,355.222Z" transform="translate(203.261 159.881)"/><path class="u" d="M826.47,368.4c23.1,117.937-73.892,158.077-228.831,212.828C513.4,611,532.512,734.373,430.174,728.759,321.389,722.792,276.593,621.2,182.726,580.112.453,500.321-19.3,434.42,12.4,330.877,49.108,211,84.439,207.2,141.651,143.929,213.545,64.417,249.384-6.586,378.338.487,494.122,6.839,570.927,91.417,650.97,164.95S803.956,254.594,826.47,368.4Z" transform="translate(187.666 147.583)"/><path class="v" d="M858.141,381.582c24.375,122.45-77.33,162.778-239.92,219.213-87.773,30.468-65.3,160.778-171.558,154.949C333.712,749.548,288.5,642.8,190.726,600.6-.923,517.886-20.235,450.164,13.48,342.824c39.283-125.057,75.909-127.1,135.314-192.8C223.439,67.466,258.8-6.842,392.7.5,512.918,7.1,591.93,95.785,675.035,172.135S834.372,263.223,858.141,381.582Z" transform="translate(172.057 135.283)"/><path class="w" d="M889.82,394.76c25.65,126.965-80.773,167.483-251.011,225.6C547.5,651.529,573.342,788.773,463.161,782.729,346.041,776.3,300.414,664.394,198.736,621.086-2.289,535.461-21.159,465.908,14.566,354.771,56.428,224.539,94.349,224.24,155.943,156.117,233.343,70.511,268.233-7.1,407.07.518c124.655,6.838,205.865,99.633,292.041,178.8S864.8,271.85,889.82,394.76Z" transform="translate(156.441 122.986)"/><path class="x" d="M921.506,407.94c26.92,131.474-84.213,172.194-262.1,231.983-94.841,31.877-65.639,176.049-179.741,169.79C358.376,803.061,312.332,686,206.75,641.575-3.653,553.051-22.074,481.657,15.661,366.719,60.108,231.317,99.313,232.757,163.1,162.21,243.253,73.56,277.669-7.354,421.445.533,550.536,7.614,633.948,104.52,723.19,186.5S895.233,280.478,921.506,407.94Z" transform="translate(140.819 110.687)"/><path class="y" d="M953.2,421.121c28.193,135.987-87.644,176.917-273.193,238.371-98.37,32.581-65.813,183.681-183.832,177.207-125.456-6.882-171.917-129.1-281.4-174.637C-5.009,570.646-22.976,497.4,16.758,378.666,63.8,238.095,104.283,241.275,170.261,168.3,253.17,76.607,287.114-7.61,435.829.548c133.528,7.324,219.143,108.339,311.452,193.14S925.671,289.105,953.2,421.121Z" transform="translate(125.189 98.388)"/><path class="z" d="M984.9,434.3c29.462,140.5-91.08,181.641-284.287,244.756-101.9,33.289-65.976,191.316-187.921,184.627-129.625-7.11-176.5-134.473-289.891-181.133C-6.365,588.25-23.871,513.153,17.862,390.611,67.5,244.875,109.261,249.79,177.429,174.4,263.092,79.656,296.564-7.866,450.222.563,588.182,8.131,676,113.254,771.373,200.871S956.113,297.732,984.9,434.3Z" transform="translate(109.554 86.091)"/><path class="aa" d="M1016.594,447.479c30.742,145.015-94.509,186.368-295.372,251.141-105.435,34-66.148,198.95-192.013,192.046-133.789-7.339-181.08-139.846-298.38-187.628C-7.717,605.866-24.758,528.909,18.971,402.561,71.2,251.661,114.24,258.308,184.6,180.491,273.02,82.7,306.014-8.121,464.612.578c142.4,7.811,232.417,117.044,330.853,207.478S986.561,306.359,1016.594,447.479Z" transform="translate(93.917 73.792)"/><path class="ab" d="M1048.305,460.659c32.008,149.526-97.939,191.1-306.465,257.528-108.964,34.71-66.322,206.583-196.1,199.464-137.958-7.568-185.659-145.219-306.867-194.125C-9.059,623.486-25.643,544.662,20.087,414.506c54.835-156.061,99.142-147.68,171.691-227.92C282.95,85.751,315.475-8.377,479.012.594c146.832,8.054,239.054,121.4,340.56,214.648S1017.019,314.989,1048.305,460.659Z" transform="translate(78.271 61.493)"/><path class="ac" d="M1080.015,473.838C1113.3,627.877,978.643,669.675,762.461,737.752c-112.5,35.424-66.493,214.217-200.2,206.883-142.122-7.8-190.239-150.586-315.357-200.622C-10.4,641.113-26.519,560.418,21.2,426.452c57.439-161.22,103.012-151.108,177.755-233.773C292.887,88.8,324.937-8.633,493.413.609,644.682,8.907,739.1,126.357,843.677,222.425S1047.474,323.614,1080.015,473.838Z" transform="translate(62.623 49.195)"/><path class="ad" d="M1111.611,487.018c34.557,158.552-104.621,200.948-328.644,270.3-115.938,36.332-66.663,221.854-204.291,214.3C432.389,963.6,383.855,815.663,254.834,764.5-11.858,658.743-27.24,576.282,22.21,438.4,82.581,272.151,129.1,283.863,206.025,198.772,302.708,91.845,334.286-8.888,507.7.624c155.7,8.541,252.328,130.1,359.963,228.986S1077.819,332.243,1111.611,487.018Z" transform="translate(47.09 36.896)"/><path class="ae" d="M1143.394,500.2c35.826,163.065-108.115,205.568-339.739,276.684-119.5,36.985-66.83,229.488-208.376,221.724C444.82,990.351,395.8,837.48,262.946,784.987-13.277,676.794-28.135,592,23.4,450.346,86.27,278.9,134.156,292.379,213.276,204.863,312.711,94.891,343.815-9.144,522.177.64c160.137,8.784,258.968,134.45,369.67,236.155S1108.344,340.871,1143.394,500.2Z" transform="translate(31.371 24.598)"/><path class="af" d="M1175.14,513.377c37.1,167.576-111.6,210.193-350.826,283.069-123.062,37.639-67,237.122-212.47,229.143C457.22,1017.108,407.825,859,271.02,805.476-14.514,694.233-29.061,607.73,24.553,462.3,89.928,285.65,139.178,300.9,220.5,210.958,322.685,97.94,353.312-9.4,536.613.655c164.573,9.027,265.6,138.8,379.372,243.323S1138.839,349.5,1175.14,513.377Z" transform="translate(15.688 12.299)"/><path class="ag" d="M1206.893,526.558c38.369,172.089-115.09,214.814-361.921,289.455C718.35,854.3,777.8,1060.769,628.413,1052.575c-158.792-8.71-208.562-172.052-349.31-226.612C-15.742,711.672-29.986,623.456,25.71,474.242,93.588,292.4,144.206,309.414,227.718,217.053,332.659,100.989,362.814-9.655,551.055.67,720.065,9.941,823.3,143.827,940.134,251.163S1169.334,358.126,1206.893,526.558Z" transform="translate(0)"/></g></g></g></svg>