<svg xmlns="http://www.w3.org/2000/svg" xmlns:xlink="http://www.w3.org/1999/xlink" width="237.18" height="819.835" viewBox="0 0 237.18 819.835"><defs><style>.a{fill:#fff;stroke:#707070;}.b{clip-path:url(#a);}.c{clip-path:url(#b);}.d{opacity:0.65;}.aa,.ab,.ac,.ad,.ae,.af,.ag,.e,.f,.g,.h,.i,.j,.k,.l,.m,.n,.o,.p,.q,.r,.s,.t,.u,.v,.w,.x,.y,.z{fill:none;stroke:#2e4b79;stroke-linecap:round;stroke-miterlimit:10;}.e{stroke-width:3px;stroke-dasharray:0 9;}.f{stroke-width:2.909px;stroke-dasharray:0 8.834;}.g{stroke-width:2.818px;stroke-dasharray:0 8.668;}.h{stroke-width:2.726px;stroke-dasharray:0 8.503;}.i{stroke-width:2.635px;stroke-dasharray:0 8.337;}.j{stroke-width:2.544px;stroke-dasharray:0 8.171;}.k{stroke-width:2.453px;stroke-dasharray:0 8.005;}.l{stroke-width:2.362px;stroke-dasharray:0 7.839;}.m{stroke-width:2.27px;stroke-dasharray:0 7.673;}.n{stroke-width:2.179px;stroke-dasharray:0 7.508;}.o{stroke-width:2.088px;stroke-dasharray:0 7.342;}.p{stroke-width:1.997px;stroke-dasharray:0 7.176;}.q{stroke-width:1.906px;stroke-dasharray:0 7.01;}.r{stroke-width:1.814px;stroke-dasharray:0 6.844;}.s{stroke-width:1.723px;stroke-dasharray:0 6.679;}.t{stroke-width:1.632px;stroke-dasharray:0 6.513;}.u{stroke-width:1.541px;stroke-dasharray:0 6.347;}.v{stroke-width:1.45px;stroke-dasharray:0 6.181;}.w{stroke-width:1.358px;stroke-dasharray:0 6.015;}.x{stroke-width:1.267px;stroke-dasharray:0 5.849;}.y{stroke-width:1.176px;stroke-dasharray:0 5.684;}.z{stroke-width:1.085px;stroke-dasharray:0 5.518;}.aa{stroke-width:0.994px;stroke-dasharray:0 5.352;}.ab{stroke-width:0.902px;stroke-dasharray:0 5.186;}.ac{stroke-width:0.811px;stroke-dasharray:0 5.02;}.ad{stroke-width:0.72px;stroke-dasharray:0 4.855;}.ae{stroke-width:0.629px;stroke-dasharray:0 4.689;}.af{stroke-width:0.538px;stroke-dasharray:0 4.523;}.ag{stroke-width:0.446px;stroke-dasharray:0 4.357;}</style><clipPath id="a"><rect class="a" width="819.835" height="237.18" transform="translate(0 0)"/></clipPath><clipPath id="b"><rect class="a" width="914.029" height="912.17" transform="translate(0 0)"/></clipPath></defs><g class="b" transform="translate(0 819.835) rotate(-90)"><g class="c" transform="translate(150.259 -624.703)"><g class="d" transform="matrix(-0.891, 0.454, -0.454, -0.891, 901.995, 532.843)"><path class="e" d="M224.541,108.909A87.264,87.264,0,0,1,189.023,185.4c-18.581,13.831-43.132,21.425-70.513,19.923a131.3,131.3,0,0,1-77.164-30.9C17.718,154.434,1.974,126.639.172,96.6-1.334,71.5,7.15,49.044,22.456,32.115,41.692,10.842,71.7-1.7,106.2.188A131.392,131.392,0,0,1,187.331,34.58C208.745,54.254,222.842,80.585,224.541,108.909Z" transform="translate(298.823 238.017)"/><path class="f" d="M245.517,118.014c2.774,34.733-14.678,61.962-43.183,80.905-21.207,14.093-43.25,26.7-73.342,25.051C97,222.216,69.9,206.7,45.96,188.584,16.232,166.09.056,137.472,0,104.855-.048,76.129,9.656,54.927,26.476,36.323,47.615,12.942,77.3-1.886,115.214.194c34.044,1.867,64.3,17.726,87.837,39.347S242.95,86.544,245.517,118.014Z" transform="translate(288.95 229.521)"/><path class="g" d="M266.771,127.122c3.654,37.851-17.239,64.949-50.851,85.32-23.77,14.406-43.368,31.979-76.17,30.18-34.867-1.913-62.083-21.275-88.9-39.88C14.9,177.8-1.493,148.3.106,113.111c1.473-32.36,12.332-52.3,30.667-72.579C53.815,15.047,83.17-2.066,124.5.2c37.111,2.036,68.892,20.735,94.545,44.3S263.338,92.506,266.771,127.122Z" transform="translate(278.801 221.023)"/><path class="h" d="M288.195,136.23c4.536,40.971-19.748,67.975-58.513,89.734-26.292,14.757-43.486,37.255-79,35.307C112.934,259.2,85.538,236.063,55.916,216.9,13.672,189.576-2.805,159.124.385,121.367c3.04-36,15.007-54.671,34.858-76.627C60.19,17.151,89.215-2.245,133.963.209c40.177,2.2,73.479,23.744,101.252,49.26S283.9,98.466,288.195,136.23Z" transform="translate(268.478 212.524)"/><path class="i" d="M309.733,145.339c5.416,44.091-22.226,71.037-66.182,94.148-28.789,15.137-43.6,42.534-81.824,40.437C121.1,277.7,93.48,250.828,61.092,231.063,12.5,201.409-3.954,169.955.778,129.624,5.427,89.992,18.46,72.582,39.824,48.952,66.676,19.255,95.374-2.424,143.537.218,186.781,2.59,221.6,26.971,251.5,54.434S304.57,104.429,309.733,145.339Z" transform="translate(258.043 204.024)"/><path class="j" d="M331.356,154.447c6.3,47.21-24.683,74.13-73.846,98.562-31.273,15.539-43.722,47.811-84.655,45.565-43.51-2.387-71.372-32.947-106.5-53.352C11.376,213.29-4.987,180.79,1.253,137.879c6.294-43.26,20.359-59.41,43.239-84.718C73.245,21.36,101.617-2.6,153.2.227c46.306,2.54,82.655,29.76,114.667,59.17S325.324,110.391,331.356,154.447Z" transform="translate(247.524 195.525)"/><path class="k" d="M353.038,163.557c7.173,50.33-27.12,77.252-81.515,102.976-33.74,15.959-43.836,53.088-87.48,50.694-46.391-2.545-74.513-36.771-112.37-57.844C10.289,225.215-5.935,191.632,1.787,146.137,9.746,99.249,24.822,84.356,49.22,57.372,79.876,23.468,107.923-2.78,162.914.236c49.373,2.708,87.243,32.769,121.376,64.126S346.141,116.355,353.038,163.557Z" transform="translate(236.945 187.024)"/><path class="l" d="M374.764,172.665c8.053,53.449-29.546,80.393-89.182,107.389-36.2,16.389-43.958,58.365-90.309,55.823-49.27-2.7-77.665-40.576-118.236-62.333C9.226,237.176-6.817,202.479,2.367,154.395c9.646-50.507,25.71-64.153,51.621-92.812C86.551,25.572,114.269-2.958,172.674.246c52.442,2.877,91.833,35.778,128.083,69.081S367,122.315,374.764,172.665Z" transform="translate(226.324 178.525)"/><path class="m" d="M396.528,181.775c8.932,56.567-31.961,83.553-96.847,111.8-38.662,16.831-44.076,63.643-93.138,60.951-52.151-2.861-80.825-44.362-124.105-66.823C8.187,249.173-7.65,213.332,2.982,162.651,14.334,108.533,31.37,96.129,58.8,65.794,93.26,27.677,120.65-3.136,182.473.256,237.979,3.3,278.894,39.041,317.267,74.293S387.9,128.279,396.528,181.775Z" transform="translate(215.664 170.024)"/><path class="n" d="M418.317,190.885C428.13,250.572,383.953,277.616,313.8,307.1c-41.111,17.282-44.191,68.92-95.963,66.08-55.032-3.019-83.987-48.136-129.974-71.315-80.7-40.675-96.306-77.679-84.24-130.958C16.7,113.183,34.69,102.016,63.63,70.007,100,29.783,127.062-3.313,192.3.265,250.871,3.478,293.306,42.06,333.8,79.259S408.818,134.242,418.317,190.885Z" transform="translate(204.976 161.523)"/><path class="o" d="M440.129,200c10.692,62.807-36.761,89.923-112.18,120.632-43.563,17.738-44.31,74.2-98.792,71.207-57.914-3.177-87.154-51.9-135.84-75.805C6.156,273.237-9.2,235.051,4.289,179.168,19.1,117.839,38.032,107.9,68.486,74.219,106.76,31.89,133.5-3.49,202.146.275c61.639,3.381,105.6,44.8,148.207,83.95S429.765,140.206,440.129,200Z" transform="translate(194.267 153.021)"/><path class="p" d="M461.958,209.1c11.574,65.926-39.154,93.126-119.846,125.047-46.01,18.2-44.427,79.473-101.62,76.336-60.792-3.335-90.319-55.658-141.706-80.3C5.159,285.3-9.933,245.916,4.973,187.426c16.55-64.928,36.419-73.636,68.387-109C113.538,34,139.946-3.668,212.014.285,276.717,3.835,322.2,48.1,366.928,89.191S450.727,146.168,461.958,209.1Z" transform="translate(183.541 144.522)"/><path class="q" d="M483.806,218.215c12.45,69.046-41.549,96.338-127.513,129.46-48.455,18.669-44.545,84.752-104.449,81.466-63.674-3.493-93.484-59.407-147.577-84.789C4.178,297.382-10.645,256.787,5.671,195.683c18.3-68.522,39.094-76,72.579-113.04C120.332,36.1,146.413-3.845,221.9.3c67.769,3.717,114.773,50.821,161.622,93.86S471.708,152.132,483.806,218.215Z" transform="translate(172.798 136.02)"/><path class="r" d="M505.662,227.325C519,299.49,461.731,326.887,370.486,361.2c-50.9,19.141-44.665,90.027-107.28,86.592-66.553-3.651-96.653-63.147-153.441-89.279C3.2,309.478-11.34,267.658,6.383,203.942c20.062-72.112,41.767-78.375,76.77-117.087C127.139,38.209,152.891-4.022,231.79.306,302.626,4.192,351.15,54.134,400.119,99.122S492.7,158.1,505.662,227.325Z" transform="translate(162.042 127.519)"/><path class="s" d="M527.534,236.436c14.209,75.284-46.32,102.792-142.846,138.288-53.345,19.618-44.784,95.305-110.106,91.722-69.434-3.809-99.824-66.886-159.312-93.771C2.23,321.591-12.02,278.534,7.105,212.2c21.824-75.7,44.442-80.747,80.96-121.134C133.955,40.317,159.382-4.2,241.693.316,315.6,4.37,365.641,57.154,416.731,104.089S513.7,164.061,527.534,236.436Z" transform="translate(151.277 119.017)"/><path class="t" d="M549.408,245.545c15.092,78.4-48.7,106.026-150.511,142.7-55.787,20.1-44.9,100.581-112.932,96.849-72.315-3.967-102.994-70.617-165.179-98.259C1.269,333.714-12.685,289.411,7.835,220.458c23.6-79.285,47.122-83.118,85.154-125.179C140.78,42.422,165.88-4.376,251.605.326,328.574,4.548,380.144,60.172,433.35,109.054S534.712,170.022,549.408,245.545Z" transform="translate(140.503 110.517)"/><path class="u" d="M571.293,254.656c15.969,81.523-51.077,109.27-158.179,147.116-58.231,20.578-45.018,105.86-115.76,101.979C222.159,499.626,191.194,429.4,126.308,401,.313,345.844-13.342,300.291,8.574,228.717c25.372-82.866,49.794-85.489,89.342-129.226C147.612,44.528,172.385-4.553,261.524.337,341.56,4.727,394.651,63.191,449.98,114.021S555.731,175.987,571.293,254.656Z" transform="translate(129.723 102.016)"/><path class="v" d="M593.186,263.767c16.849,84.643-53.454,112.52-165.843,151.53C366.67,436.357,382.205,526.433,308.754,522.4c-78.077-4.283-109.33-78.074-176.915-107.242C-.638,357.986-13.988,311.174,9.318,236.975,36.472,150.53,61.79,149.116,102.853,103.7,154.451,46.635,178.9-4.73,271.452.347c83.1,4.558,137.717,65.864,195.163,118.64S576.755,181.952,593.186,263.767Z" transform="translate(118.934 93.514)"/><path class="w" d="M615.084,272.876c17.731,87.764-55.834,115.772-173.51,155.944-63.115,21.547-45.254,116.415-121.416,112.238-80.958-4.441-112.5-81.8-182.782-111.735-138.958-59.187-152-107.266-127.307-184.089C39.006,155.211,65.218,155,107.795,107.915,161.3,48.741,185.415-4.907,281.385.358c86.167,4.727,142.3,68.871,201.872,123.6S597.789,187.915,615.084,272.876Z" transform="translate(108.139 85.014)"/><path class="x" d="M636.987,281.987c18.608,90.88-58.212,119.028-181.176,160.357-65.558,22.035-45.373,121.693-124.245,117.366-83.84-4.6-115.667-85.519-188.65-116.225C-2.525,382.294-15.258,332.943,10.825,253.492c30.724-93.6,57.824-92.6,101.914-141.366C168.147,50.848,191.938-5.083,291.322.368,380.556,5.263,438.213,72.249,499.9,128.919S618.825,193.879,636.987,281.987Z" transform="translate(97.34 76.512)"/><path class="y" d="M658.894,291.1c19.488,94-60.584,122.293-188.843,164.773-68,22.521-45.493,126.969-127.073,122.494-86.721-4.757-118.837-89.238-194.519-120.717C-3.463,394.456-15.882,343.829,11.584,261.751,44.1,164.582,72.085,166.78,117.692,116.34,175,52.954,198.466-5.26,301.264.379c92.3,5.063,151.482,74.889,215.29,133.507S639.865,199.842,658.894,291.1Z" transform="translate(86.536 68.01)"/><path class="z" d="M680.807,300.207c20.365,97.121-62.958,125.559-196.512,169.186C413.855,492.4,438.688,601.639,354.4,597.016c-89.6-4.915-122-92.954-200.385-125.207C-4.4,406.625-16.5,354.714,12.347,270.008c34.311-100.74,63.179-97.342,110.3-149.457C181.861,55.062,205-5.437,311.214.389c95.364,5.231,156.067,77.9,221.994,138.462S660.908,205.806,680.807,300.207Z" transform="translate(75.728 59.51)"/><path class="aa" d="M702.715,309.318c21.25,100.241-65.328,128.826-204.174,173.6-72.882,23.5-45.724,137.523-132.728,132.751C273.332,610.6,240.642,519,159.559,485.972-5.335,418.8-17.114,365.606,13.114,278.268c36.1-104.309,65.854-99.714,114.489-153.5C188.723,57.169,211.531-5.614,321.161.4c98.431,5.4,160.657,80.906,228.7,143.418S681.956,211.769,702.715,309.318Z" transform="translate(64.92 51.008)"/><path class="ab" d="M724.636,318.429c22.126,103.359-67.7,132.1-211.842,178.015-75.321,23.993-45.844,142.8-135.556,137.878C281.875,629.091,248.9,533.94,165.117,500.134-6.262,430.981-17.726,376.5,13.885,286.525c37.9-107.876,68.532-102.083,118.681-157.549C195.588,59.275,218.071-5.791,331.115.41c101.5,5.567,165.245,83.914,235.41,148.374S703.009,217.734,724.636,318.429Z" transform="translate(54.104 42.506)"/><path class="ac" d="M746.555,327.538c23.007,106.479-70.073,135.371-219.507,182.429-77.762,24.487-45.963,148.077-138.385,143.007-98.241-5.389-131.5-104.092-217.989-138.679C-7.189,443.166-18.331,387.386,14.656,294.783,54.361,183.34,85.863,190.33,137.528,133.188,202.457,61.38,224.611-5.967,341.069.421,445.633,6.157,510.9,87.343,583.187,153.75S724.061,223.7,746.555,327.538Z" transform="translate(43.288 34.006)"/><path class="ad" d="M768.4,336.649c23.887,109.6-72.319,138.9-227.174,186.843-80.141,25.115-46.08,153.355-141.215,148.137-101.12-5.547-134.669-107.805-223.854-143.172-184.349-73.1-194.982-130.1-160.8-225.416C57.084,188.123,89.237,196.219,142.414,137.4,209.246,63.488,231.073-6.144,350.948.431c107.627,5.9,174.42,89.93,248.822,158.286S745.037,229.662,768.4,336.649Z" transform="translate(32.551 25.504)"/><path class="ae" d="M790.365,345.758c24.765,112.718-74.734,142.1-234.843,191.256-82.6,25.566-46.2,158.633-144.039,153.266-104-5.7-137.887-111.376-229.724-147.662C-9.178,467.831-19.448,409.219,16.173,311.3,59.634,192.787,92.735,202.106,147.426,141.61,216.16,65.593,237.66-6.321,360.952.442,471.646,6.514,539.963,93.38,616.485,163.683S766.138,235.625,790.365,345.758Z" transform="translate(21.685 17.003)"/><path class="af" d="M812.309,354.869C837.956,470.705,735.166,500.164,569.8,550.54c-85.066,26.018-46.316,163.91-146.869,158.394-106.883-5.863-141.027-115.154-235.592-152.152C-10.033,479.885-20.088,420.091,16.972,319.56c45.19-122.106,79.234-111.566,135.444-173.736C223.054,67.7,244.225-6.5,370.931.453c113.76,6.24,183.6,95.946,262.239,168.2S787.216,241.588,812.309,354.869Z" transform="translate(10.845 8.502)"/><path class="ag" d="M834.259,363.98C860.781,482.936,754.7,512.469,584.082,564.064c-87.527,26.469-46.432,169.187-149.7,163.523-109.764-6.021-144.167-118.93-241.459-156.644-203.809-79-213.656-139.982-175.156-243.126,46.92-125.7,81.91-113.936,139.637-177.78C229.949,69.808,250.794-6.674,380.914.463,497.741,6.872,569.1,99.42,649.863,173.615S808.3,247.553,834.259,363.98Z" transform="translate(0 0)"/></g></g></g></svg>