<svg xmlns="http://www.w3.org/2000/svg" xmlns:xlink="http://www.w3.org/1999/xlink" width="248" height="50" viewBox="0 0 248 50"><defs><style>.a{clip-path:url(#b);}.b{fill:#7d7050;}.c{fill:#fff;}</style><clipPath id="b"><rect width="248" height="50"/></clipPath></defs><g id="a" class="a"><g transform="translate(-1347.605 -1220.485)"><g transform="translate(1349.605 1220.604)"><path class="b" d="M1373.628,1232.617h-2.659a9.319,9.319,0,0,1-3.03,6.871l-6.321-10.949-6.321,10.947a9.335,9.335,0,0,1,6.321-16.22V1220.6a12,12,0,0,0-7.679,21.232l-4.121,7.139h3.072l8.728-15.117,4.12,7.138a9.152,9.152,0,0,1-6.571.632L1357.8,1244a11.888,11.888,0,0,0,9.271-.694l3.275,5.672h3.068l-4.117-7.136A11.982,11.982,0,0,0,1373.628,1232.617Z" transform="translate(-1349.605 -1220.604)"/></g><g transform="translate(1384.164 1222.481)"><path class="b" d="M1376.916,1232.316l4.52-10.216h1.161l4.449,10.216h-1.368l-1.1-2.63h-5.219l-1.15,2.63Zm2.893-3.706h4.316L1382,1223.6h-.03Z" transform="translate(-1376.916 -1222.1)"/><path class="b" d="M1392.156,1228.994h-.129l-3.605-4.84h-.03v8.153h-1.206v-10.174h1.221l3.677,4.942,3.576-4.942h1.294v10.174h-1.236v-8.153h-.029Z" transform="translate(-1374.298 -1222.091)"/><path class="b" d="M1397.178,1232.316l4.519-10.216h1.165l4.446,10.216h-1.365l-1.106-2.63h-5.218l-1.147,2.63Zm2.891-3.706h4.317l-2.124-5.015h-.026Z" transform="translate(-1371.751 -1222.1)"/><path class="b" d="M1410.763,1232.307h-3.314v-10.174h3.314c3.2,0,5.449,2.137,5.449,5.088S1413.959,1232.307,1410.763,1232.307Zm-.015-9.068h-2.078v7.964h2.093a3.987,3.987,0,1,0-.015-7.964Z" transform="translate(-1369.132 -1222.091)"/><path class="b" d="M1415.727,1232.316l4.519-10.216h1.165l4.446,10.216h-1.365l-1.106-2.63h-5.218l-1.147,2.63Zm2.891-3.706h4.317l-2.121-5.015h-.029Z" transform="translate(-1367.022 -1222.1)"/><path class="b" d="M1386.053,1243.6a4.733,4.733,0,0,1-3.865,1.774,5.238,5.238,0,0,1,.042-10.465,4.563,4.563,0,0,1,3.679,1.511l-.961.742a3.445,3.445,0,0,0-2.73-1.148,4.148,4.148,0,0,0,0,8.255,3.452,3.452,0,0,0,2.893-1.379Z" transform="translate(-1376.839 -1218.835)"/><path class="b" d="M1385.809,1240.136a5.231,5.231,0,1,1,5.216,5.233A5.131,5.131,0,0,1,1385.809,1240.136Zm9.2,0a3.987,3.987,0,0,0-3.983-4.1,3.945,3.945,0,0,0-3.952,4.1,4,4,0,0,0,3.981,4.1A3.947,3.947,0,0,0,1395.008,1240.136Z" transform="translate(-1374.649 -1218.835)"/><path class="b" d="M1396.656,1235.02h1.224v9.01h5.26v1.163h-6.483Z" transform="translate(-1371.883 -1218.806)"/><path class="b" d="M1403.084,1240.136a5.232,5.232,0,1,1,5.215,5.233A5.132,5.132,0,0,1,1403.084,1240.136Zm9.2,0a3.987,3.987,0,0,0-3.983-4.1,3.944,3.944,0,0,0-3.95,4.1,4,4,0,0,0,3.981,4.1A3.946,3.946,0,0,0,1412.283,1240.136Z" transform="translate(-1370.245 -1218.835)"/><path class="b" d="M1416.92,1245.369a4.828,4.828,0,0,1-3.531-1.528l.887-.871a3.675,3.675,0,0,0,2.629,1.265c1.047,0,2.442-.509,2.442-1.715,0-.859-.567-1.38-2.442-1.831-2.207-.523-3.313-1.295-3.313-3.024,0-1.584,1.438-2.761,3.313-2.761a4.482,4.482,0,0,1,3.329,1.323l-.873.858a3.268,3.268,0,0,0-2.441-1.046c-1.235,0-2.063.683-2.063,1.6s.363,1.453,2.5,1.934c2.019.464,3.255,1.338,3.255,2.906C1420.612,1244.249,1418.9,1245.369,1416.92,1245.369Z" transform="translate(-1367.618 -1218.835)"/><path class="b" d="M1424.619,1245.369a4.834,4.834,0,0,1-3.532-1.528l.887-.871a3.68,3.68,0,0,0,2.63,1.265c1.046,0,2.443-.509,2.443-1.715,0-.859-.568-1.38-2.443-1.831-2.209-.523-3.314-1.295-3.314-3.024,0-1.584,1.438-2.761,3.314-2.761a4.471,4.471,0,0,1,3.328,1.323l-.87.858a3.278,3.278,0,0,0-2.444-1.046c-1.235,0-2.063.683-2.063,1.6s.365,1.453,2.5,1.934c2.019.464,3.255,1.338,3.255,2.906C1428.311,1244.249,1426.6,1245.369,1424.619,1245.369Z" transform="translate(-1365.655 -1218.835)"/><path class="b" d="M1428.939,1240.136a5.232,5.232,0,1,1,5.217,5.233A5.132,5.132,0,0,1,1428.939,1240.136Zm9.2,0a3.987,3.987,0,0,0-3.983-4.1,3.945,3.945,0,0,0-3.952,4.1,4,4,0,0,0,3.981,4.1A3.947,3.947,0,0,0,1438.139,1240.136Z" transform="translate(-1363.653 -1218.835)"/><path class="b" d="M1442.776,1245.369a4.834,4.834,0,0,1-3.533-1.528l.887-.871a3.675,3.675,0,0,0,2.63,1.265c1.047,0,2.441-.509,2.441-1.715,0-.859-.566-1.38-2.441-1.831-2.209-.523-3.314-1.295-3.314-3.024,0-1.584,1.439-2.761,3.314-2.761a4.479,4.479,0,0,1,3.328,1.323l-.872.858a3.269,3.269,0,0,0-2.441-1.046c-1.236,0-2.064.683-2.064,1.6s.363,1.453,2.5,1.934c2.021.464,3.255,1.338,3.255,2.906C1446.467,1244.249,1444.754,1245.369,1442.776,1245.369Z" transform="translate(-1361.026 -1218.835)"/><g transform="translate(0.036 41.295)"><path class="b" d="M1381.438,1261.177c-.926-2.457-1.011-2.576-1.806-2.576h-.769v2.335l.95.169v.349h-2.868v-.349l.952-.169V1255.6l-.952-.169v-.349h3.109c1.181,0,2.228.59,2.228,1.722,0,1.06-.794,1.495-1.89,1.614v.025c.614.071.964.276,1.36,1.059l.735,1.433.72.169v.349h-1.261C1381.643,1261.454,1381.512,1261.358,1381.438,1261.177Zm-2.575-3.01h.9c1.216,0,1.517-.325,1.517-1.349s-.335-1.3-1.311-1.3h-1.107Z" transform="translate(-1376.945 -1254.986)"/><path class="b" d="M1384.451,1261.105l.939-.169v-5.323l-.939-.181v-.349h5.047l.24,1.794-.206.071-.877-1.384-2.314-.169v2.638l1.265-.072.4-.94h.255v2.289H1388l-.4-.867-1.265-.085v2.76l2.649-.146.951-1.674.243.06-.314,2.1h-5.42Z" transform="translate(-1375.031 -1254.986)"/><path class="b" d="M1392.469,1260.883l-.216.591h-.289l-.231-2.288.267-.06c.7,1.469,1.287,2.023,2.24,2.023.782,0,1.311-.4,1.311-1.108s-.347-1-1.723-1.481c-1.2-.434-1.963-.916-1.963-1.928a1.729,1.729,0,0,1,1.9-1.626,2.325,2.325,0,0,1,1.468.518l.195-.422h.265l.206,1.915-.244.048c-.6-1.167-1.132-1.638-1.9-1.638a1.029,1.029,0,0,0-1.157.94c0,.639.314.831,1.59,1.288,1.216.434,2.18.94,2.18,2.121a1.88,1.88,0,0,1-2.121,1.783A2.558,2.558,0,0,1,1392.469,1260.883Z" transform="translate(-1373.175 -1255.006)"/><path class="b" d="M1398.166,1258.306a3.135,3.135,0,1,1,6.262,0,3.133,3.133,0,1,1-6.262,0Zm5.2,0c0-2.1-.843-2.866-2.074-2.866s-2.071.77-2.071,2.866c0,2.036.892,2.831,2.071,2.831C1402.44,1261.137,1403.37,1260.342,1403.37,1258.306Z" transform="translate(-1371.535 -1255.006)"/><path class="b" d="M1410.383,1261.177c-.927-2.457-1.01-2.576-1.807-2.576h-.769v2.335l.951.169v.349h-2.868v-.349l.953-.169V1255.6l-.953-.169v-.349H1409c1.182,0,2.229.59,2.229,1.722,0,1.06-.794,1.495-1.89,1.614v.025c.613.071.963.276,1.36,1.059l.735,1.433.723.169v.349h-1.265C1410.589,1261.454,1410.456,1261.358,1410.383,1261.177Zm-2.576-3.01h.9c1.217,0,1.517-.325,1.517-1.349s-.336-1.3-1.312-1.3h-1.108Z" transform="translate(-1369.565 -1254.986)"/><path class="b" d="M1414.568,1261.105l1.059-.169v-5.515l-1.324.144-.8,1.771-.265-.06.145-2.192h5.444l.157,2.192-.265.06-.806-1.771-1.327-.144v5.515l1.062.169v.349h-3.083Z" transform="translate(-1367.691 -1254.986)"/></g><rect class="b" width="7.223" height="0.547" transform="translate(0.14 33.491)"/></g></g><g transform="translate(-1223.605 -1220.485)"><g transform="translate(1349.605 1220.604)"><path class="c" d="M1373.628,1232.617h-2.659a9.319,9.319,0,0,1-3.03,6.871l-6.321-10.949-6.321,10.947a9.335,9.335,0,0,1,6.321-16.22V1220.6a12,12,0,0,0-7.679,21.232l-4.121,7.139h3.072l8.728-15.117,4.12,7.138a9.152,9.152,0,0,1-6.571.632L1357.8,1244a11.888,11.888,0,0,0,9.271-.694l3.275,5.672h3.068l-4.117-7.136A11.982,11.982,0,0,0,1373.628,1232.617Z" transform="translate(-1349.605 -1220.604)"/></g><g transform="translate(1384.164 1222.481)"><path class="c" d="M1376.916,1232.316l4.52-10.216h1.161l4.449,10.216h-1.368l-1.1-2.63h-5.219l-1.15,2.63Zm2.893-3.706h4.316L1382,1223.6h-.03Z" transform="translate(-1376.916 -1222.1)"/><path class="c" d="M1392.156,1228.994h-.129l-3.605-4.84h-.03v8.153h-1.206v-10.174h1.221l3.677,4.942,3.576-4.942h1.294v10.174h-1.236v-8.153h-.029Z" transform="translate(-1374.298 -1222.091)"/><path class="c" d="M1397.178,1232.316l4.519-10.216h1.165l4.446,10.216h-1.365l-1.106-2.63h-5.218l-1.147,2.63Zm2.891-3.706h4.317l-2.124-5.015h-.026Z" transform="translate(-1371.751 -1222.1)"/><path class="c" d="M1410.763,1232.307h-3.314v-10.174h3.314c3.2,0,5.449,2.137,5.449,5.088S1413.959,1232.307,1410.763,1232.307Zm-.015-9.068h-2.078v7.964h2.093a3.987,3.987,0,1,0-.015-7.964Z" transform="translate(-1369.132 -1222.091)"/><path class="c" d="M1415.727,1232.316l4.519-10.216h1.165l4.446,10.216h-1.365l-1.106-2.63h-5.218l-1.147,2.63Zm2.891-3.706h4.317l-2.121-5.015h-.029Z" transform="translate(-1367.022 -1222.1)"/><path class="c" d="M1386.053,1243.6a4.733,4.733,0,0,1-3.865,1.774,5.238,5.238,0,0,1,.042-10.465,4.563,4.563,0,0,1,3.679,1.511l-.961.742a3.445,3.445,0,0,0-2.73-1.148,4.148,4.148,0,0,0,0,8.255,3.452,3.452,0,0,0,2.893-1.379Z" transform="translate(-1376.839 -1218.835)"/><path class="c" d="M1385.809,1240.136a5.231,5.231,0,1,1,5.216,5.233A5.131,5.131,0,0,1,1385.809,1240.136Zm9.2,0a3.987,3.987,0,0,0-3.983-4.1,3.945,3.945,0,0,0-3.952,4.1,4,4,0,0,0,3.981,4.1A3.947,3.947,0,0,0,1395.008,1240.136Z" transform="translate(-1374.649 -1218.835)"/><path class="c" d="M1396.656,1235.02h1.224v9.01h5.26v1.163h-6.483Z" transform="translate(-1371.883 -1218.806)"/><path class="c" d="M1403.084,1240.136a5.232,5.232,0,1,1,5.215,5.233A5.132,5.132,0,0,1,1403.084,1240.136Zm9.2,0a3.987,3.987,0,0,0-3.983-4.1,3.944,3.944,0,0,0-3.95,4.1,4,4,0,0,0,3.981,4.1A3.946,3.946,0,0,0,1412.283,1240.136Z" transform="translate(-1370.245 -1218.835)"/><path class="c" d="M1416.92,1245.369a4.828,4.828,0,0,1-3.531-1.528l.887-.871a3.675,3.675,0,0,0,2.629,1.265c1.047,0,2.442-.509,2.442-1.715,0-.859-.567-1.38-2.442-1.831-2.207-.523-3.313-1.295-3.313-3.024,0-1.584,1.438-2.761,3.313-2.761a4.482,4.482,0,0,1,3.329,1.323l-.873.858a3.268,3.268,0,0,0-2.441-1.046c-1.235,0-2.063.683-2.063,1.6s.363,1.453,2.5,1.934c2.019.464,3.255,1.338,3.255,2.906C1420.612,1244.249,1418.9,1245.369,1416.92,1245.369Z" transform="translate(-1367.618 -1218.835)"/><path class="c" d="M1424.619,1245.369a4.834,4.834,0,0,1-3.532-1.528l.887-.871a3.68,3.68,0,0,0,2.63,1.265c1.046,0,2.443-.509,2.443-1.715,0-.859-.568-1.38-2.443-1.831-2.209-.523-3.314-1.295-3.314-3.024,0-1.584,1.438-2.761,3.314-2.761a4.471,4.471,0,0,1,3.328,1.323l-.87.858a3.278,3.278,0,0,0-2.444-1.046c-1.235,0-2.063.683-2.063,1.6s.365,1.453,2.5,1.934c2.019.464,3.255,1.338,3.255,2.906C1428.311,1244.249,1426.6,1245.369,1424.619,1245.369Z" transform="translate(-1365.655 -1218.835)"/><path class="c" d="M1428.939,1240.136a5.232,5.232,0,1,1,5.217,5.233A5.132,5.132,0,0,1,1428.939,1240.136Zm9.2,0a3.987,3.987,0,0,0-3.983-4.1,3.945,3.945,0,0,0-3.952,4.1,4,4,0,0,0,3.981,4.1A3.947,3.947,0,0,0,1438.139,1240.136Z" transform="translate(-1363.653 -1218.835)"/><path class="c" d="M1442.776,1245.369a4.834,4.834,0,0,1-3.533-1.528l.887-.871a3.675,3.675,0,0,0,2.63,1.265c1.047,0,2.441-.509,2.441-1.715,0-.859-.566-1.38-2.441-1.831-2.209-.523-3.314-1.295-3.314-3.024,0-1.584,1.439-2.761,3.314-2.761a4.479,4.479,0,0,1,3.328,1.323l-.872.858a3.269,3.269,0,0,0-2.441-1.046c-1.236,0-2.064.683-2.064,1.6s.363,1.453,2.5,1.934c2.021.464,3.255,1.338,3.255,2.906C1446.467,1244.249,1444.754,1245.369,1442.776,1245.369Z" transform="translate(-1361.026 -1218.835)"/><g transform="translate(0.036 41.295)"><path class="c" d="M1381.438,1261.177c-.926-2.457-1.011-2.576-1.806-2.576h-.769v2.335l.95.169v.349h-2.868v-.349l.952-.169V1255.6l-.952-.169v-.349h3.109c1.181,0,2.228.59,2.228,1.722,0,1.06-.794,1.495-1.89,1.614v.025c.614.071.964.276,1.36,1.059l.735,1.433.72.169v.349h-1.261C1381.643,1261.454,1381.512,1261.358,1381.438,1261.177Zm-2.575-3.01h.9c1.216,0,1.517-.325,1.517-1.349s-.335-1.3-1.311-1.3h-1.107Z" transform="translate(-1376.945 -1254.986)"/><path class="c" d="M1384.451,1261.105l.939-.169v-5.323l-.939-.181v-.349h5.047l.24,1.794-.206.071-.877-1.384-2.314-.169v2.638l1.265-.072.4-.94h.255v2.289H1388l-.4-.867-1.265-.085v2.76l2.649-.146.951-1.674.243.06-.314,2.1h-5.42Z" transform="translate(-1375.031 -1254.986)"/><path class="c" d="M1392.469,1260.883l-.216.591h-.289l-.231-2.288.267-.06c.7,1.469,1.287,2.023,2.24,2.023.782,0,1.311-.4,1.311-1.108s-.347-1-1.723-1.481c-1.2-.434-1.963-.916-1.963-1.928a1.729,1.729,0,0,1,1.9-1.626,2.325,2.325,0,0,1,1.468.518l.195-.422h.265l.206,1.915-.244.048c-.6-1.167-1.132-1.638-1.9-1.638a1.029,1.029,0,0,0-1.157.94c0,.639.314.831,1.59,1.288,1.216.434,2.18.94,2.18,2.121a1.88,1.88,0,0,1-2.121,1.783A2.558,2.558,0,0,1,1392.469,1260.883Z" transform="translate(-1373.175 -1255.006)"/><path class="c" d="M1398.166,1258.306a3.135,3.135,0,1,1,6.262,0,3.133,3.133,0,1,1-6.262,0Zm5.2,0c0-2.1-.843-2.866-2.074-2.866s-2.071.77-2.071,2.866c0,2.036.892,2.831,2.071,2.831C1402.44,1261.137,1403.37,1260.342,1403.37,1258.306Z" transform="translate(-1371.535 -1255.006)"/><path class="c" d="M1410.383,1261.177c-.927-2.457-1.01-2.576-1.807-2.576h-.769v2.335l.951.169v.349h-2.868v-.349l.953-.169V1255.6l-.953-.169v-.349H1409c1.182,0,2.229.59,2.229,1.722,0,1.06-.794,1.495-1.89,1.614v.025c.613.071.963.276,1.36,1.059l.735,1.433.723.169v.349h-1.265C1410.589,1261.454,1410.456,1261.358,1410.383,1261.177Zm-2.576-3.01h.9c1.217,0,1.517-.325,1.517-1.349s-.336-1.3-1.312-1.3h-1.108Z" transform="translate(-1369.565 -1254.986)"/><path class="c" d="M1414.568,1261.105l1.059-.169v-5.515l-1.324.144-.8,1.771-.265-.06.145-2.192h5.444l.157,2.192-.265.06-.806-1.771-1.327-.144v5.515l1.062.169v.349h-3.083Z" transform="translate(-1367.691 -1254.986)"/></g><rect class="c" width="7.223" height="0.547" transform="translate(0.14 33.491)"/></g></g></g></svg>